<svg width="220" height="36" viewBox="0 0 220 36" fill="none" xmlns="http://www.w3.org/2000/svg">
<path fill-rule="evenodd" clip-rule="evenodd" d="M59.5854 8.65233L60.5636 20.8726L60.6361 20.8846L66.5658 8.65233H71.8797L68.3653 26.1477H64.3195L65.1891 21.8099L67.061 14.3119L66.9885 14.2878L60.9018 26.1477H58.1845L56.8923 14.396H56.8198L55.6846 21.8099L54.815 26.1477H50.7693L54.2837 8.65233H59.5854ZM86.0096 18.9741C85.5427 21.2892 84.5906 23.1056 83.1534 24.4234C81.7163 25.7411 79.9551 26.4 77.8698 26.4C75.9053 26.4 74.3313 25.685 73.1477 24.2551C71.9642 22.8252 71.5818 21.0649 72.0004 18.9741L72.6405 15.8259C73.1075 13.5028 74.0414 11.6844 75.4424 10.3706C76.8433 9.05686 78.5864 8.39999 80.6716 8.39999C82.6362 8.39999 84.2263 9.11895 85.442 10.5569C86.6578 11.9948 87.0603 13.7511 86.6497 15.8259L86.0096 18.9741ZM82.6281 15.8019C82.8857 14.5201 82.767 13.4868 82.2718 12.7017C81.7767 11.9167 81.034 11.5242 80.0436 11.5242C79.1661 11.5242 78.4475 11.9127 77.8879 12.6897C77.3284 13.4668 76.9198 14.5041 76.6621 15.8019L76.022 18.9741C75.7564 20.2879 75.851 21.3332 76.3059 22.1103C76.7607 22.8873 77.4914 23.2758 78.4978 23.2758C79.3593 23.2758 80.092 22.8793 80.6958 22.0862C81.2996 21.2932 81.7304 20.2558 81.988 18.9741L82.6281 15.8019ZM93.449 21.4013L93.4611 21.942L93.5335 21.9541L93.7147 21.4494L98.8474 8.65233H103.074L95.019 26.1477H90.6592L88.268 8.65233H92.4708L93.449 21.4013ZM105.622 26.1477H101.601L105.115 8.65233H109.137L105.622 26.1477ZM120.248 18.6617H113.956L113.086 23.0235H120.513L119.885 26.1477H108.412L111.927 8.65233H123.424L122.796 11.7765H115.344L114.584 15.5375H120.876L120.248 18.6617ZM133.484 19.1063H127.071L125.658 26.1477H121.612L125.127 8.65233H136.733L136.105 11.7765H128.544L127.699 15.9821H134.112L133.484 19.1063ZM139.22 26.1477H135.199L138.713 8.65233H142.735L139.22 26.1477ZM155.802 26.1477H151.768L148.29 15.4053L148.218 15.4174L146.056 26.1477H142.01L145.524 8.65233H149.57L153.048 19.3947L153.121 19.3826L155.283 8.65233H159.316L155.802 26.1477ZM167.432 8.65233C169.26 8.65233 170.779 9.35726 171.991 10.7672C173.203 12.177 173.603 13.9033 173.193 15.9461L172.553 19.0943C172.102 21.3613 171.186 23.1036 169.805 24.3212C168.424 25.5389 166.76 26.1477 164.811 26.1477H158.35L161.865 8.65233H167.432ZM165.282 11.7765L163.024 23.0235H165.162C166.031 23.0235 166.744 22.679 167.299 21.9901C167.855 21.3012 168.257 20.3359 168.507 19.0943L169.147 15.922C169.396 14.6563 169.274 13.649 168.779 12.9C168.283 12.151 167.533 11.7765 166.526 11.7765H165.282ZM185.33 18.6617H179.038L178.168 23.0235H185.596L184.968 26.1477H173.495L177.009 8.65233H188.506L187.878 11.7765H180.427L179.666 15.5375H185.958L185.33 18.6617ZM192.093 19.4427L190.752 26.1477H186.695L190.209 8.65233H196.586C198.373 8.65233 199.76 9.12896 200.746 10.0822C201.732 11.0355 202.068 12.3092 201.754 13.9033C201.553 14.8806 201.169 15.6837 200.601 16.3125C200.033 16.9414 199.263 17.4521 198.288 17.8446C199.19 18.165 199.804 18.6857 200.13 19.4067C200.456 20.1276 200.519 20.9888 200.317 21.9901L200.1 23.0956C200.003 23.5682 199.961 24.0929 199.973 24.6697C199.985 25.2465 200.124 25.659 200.39 25.9073L200.341 26.1477H196.187C195.937 25.8993 195.829 25.4688 195.861 24.8559C195.893 24.2431 195.966 23.6483 196.078 23.0716L196.296 22.0141C196.473 21.125 196.416 20.4741 196.127 20.0615C195.837 19.649 195.309 19.4427 194.545 19.4427H192.093ZM192.721 16.3186H195.088C195.724 16.3186 196.282 16.1283 196.761 15.7478C197.24 15.3673 197.548 14.8366 197.685 14.1557C197.829 13.3946 197.755 12.8079 197.461 12.3953C197.167 11.9828 196.666 11.7765 195.958 11.7765H193.639L192.721 16.3186Z" fill="white"/>
<path fill-rule="evenodd" clip-rule="evenodd" d="M219.745 35.8744H18.4055C8.41634 35.8744 0.255005 27.8372 0.255005 18C0.255005 8.16279 8.41634 0.12558 18.4055 0.12558C28.3946 0.12558 36.5559 8.16279 36.5559 18C36.5559 24.5302 32.9854 30.2233 27.672 33.3628H219.745V35.8744ZM34.0055 18C34.0055 9.54418 26.9919 2.63721 18.4055 2.63721C9.81907 2.63721 2.80542 9.54418 2.80542 18C2.80542 26.4558 9.77656 33.3628 18.4055 33.3628C27.0344 33.3628 34.0055 26.4558 34.0055 18Z" fill="#2586FA"/>
<path fill-rule="evenodd" clip-rule="evenodd" d="M15.5576 15.1953C14.6649 16.0744 13.4747 16.493 12.327 16.493C11.1368 16.493 9.98914 16.0326 9.139 15.1953C8.28887 14.3163 7.82129 13.2279 7.82129 12.0139C7.82129 10.8 8.28887 9.66976 9.139 8.83255C10.9243 7.07441 13.7723 7.07441 15.5576 8.83255C16.4077 9.71162 16.8753 10.8 16.8753 12.0139C16.8753 13.2279 16.4077 14.3581 15.5576 15.1953ZM12.327 10.0465C11.8169 10.0465 11.3069 10.2558 10.9243 10.6326C10.5417 11.0093 10.3292 11.4698 10.3292 12.0139C10.3292 12.5163 10.5417 13.0186 10.9243 13.3953C11.6894 14.1488 12.9646 14.1488 13.7298 13.3953C14.1123 13.0186 14.3249 12.5163 14.3249 12.0139C14.3249 11.5116 14.1123 11.0093 13.7298 10.6326C13.3472 10.2558 12.8371 10.0465 12.327 10.0465Z" fill="#2586FA"/>
<path fill-rule="evenodd" clip-rule="evenodd" d="M21.296 27.1674C19.5107 25.4093 19.5107 22.6046 21.296 20.8465C23.0388 19.0884 25.9293 19.0884 27.7571 20.8465C29.5423 22.6046 29.5423 25.4093 27.7571 27.1674C26.8644 28.0465 25.6742 28.4651 24.5265 28.4651C23.3363 28.4651 22.1886 28.0465 21.296 27.1674ZM23.0813 22.6046C22.3162 23.3581 22.3162 24.6139 23.0813 25.3674C23.8464 26.1209 25.1216 26.1209 25.8868 25.3674C26.6519 24.6139 26.6519 23.3581 25.8868 22.6046C25.5042 22.2279 24.9941 22.0186 24.484 22.0186C23.9739 22.0186 23.4639 22.2279 23.0813 22.6046Z" fill="#2586FA"/>
<path fill-rule="evenodd" clip-rule="evenodd" d="M27.7145 15.1953C26.8219 16.0744 25.6317 16.493 24.484 16.493C23.3363 16.493 22.1461 16.0326 21.296 15.1953C20.4458 14.3163 19.9783 13.2279 19.9783 12.014C19.9783 10.8 20.4458 9.66977 21.296 8.83256C23.0388 7.11628 25.9292 7.11628 27.7145 8.83256C28.5647 9.71163 29.0323 10.8 29.0323 12.014C29.0323 13.2279 28.5647 14.3581 27.7145 15.1953ZM24.484 10.0465C23.9739 10.0465 23.4638 10.2558 23.0813 10.6326C22.6987 11.0093 22.4862 11.4698 22.4862 12.014C22.4862 12.5163 22.6987 13.0186 23.0813 13.3953C23.8464 14.1488 25.1216 14.1488 25.8867 13.3953C26.2693 13.0186 26.4818 12.5163 26.4818 12.014C26.4818 11.5116 26.2693 11.0093 25.8867 10.6326C25.5042 10.2558 24.9941 10.0465 24.484 10.0465Z" fill="#2586FA"/>
<path fill-rule="evenodd" clip-rule="evenodd" d="M9.09654 27.1674C7.31125 25.4093 7.31125 22.6046 9.09654 20.8465C10.8818 19.0884 13.7723 19.0884 15.5576 20.8465C17.3429 22.6046 17.3429 25.4093 15.5576 27.1674C14.6649 28.0465 13.4748 28.4651 12.3271 28.4651C11.1369 28.4651 9.98918 28.0465 9.09654 27.1674ZM10.9243 22.6046C10.1592 23.3581 10.1592 24.6139 10.9243 25.3674C11.6895 26.1209 12.9647 26.1209 13.7298 25.3674C14.4949 24.6139 14.4949 23.3581 13.7298 22.6046C13.3472 22.2279 12.8371 22.0186 12.3271 22.0186C11.817 22.0186 11.3069 22.2279 10.9243 22.6046Z" fill="#2586FA"/>
<path fill-rule="evenodd" clip-rule="evenodd" d="M20.5308 18C20.5308 19.1721 19.5957 20.093 18.4055 20.093C17.2153 20.093 16.2802 19.1721 16.2802 18C16.2802 16.8279 17.2153 15.907 18.4055 15.907C19.5957 15.907 20.5308 16.8279 20.5308 18ZM18.8306 18C18.8306 17.7488 18.6605 17.5814 18.4055 17.5814C18.1505 17.5814 17.9804 17.7488 17.9804 18C17.9804 18.2512 18.1505 18.4186 18.4055 18.4186C18.6605 18.4186 18.8306 18.2512 18.8306 18Z" fill="#2586FA"/>
</svg>
